<svg xmlns="http://www.w3.org/2000/svg" width="1440" height="25" fill="none"><script xmlns="">var pmblock = 1.4;</script><path fill="#000" d="M1440 4.063v20.89h-.12l.12.047H0V4.066c1.545.124 3.311.186 3.753.186 1.104 0 8.168-.062 8.168-.062l16.998-3.15 13.025.248 8.168.37L60.487.3h.442l6.181.494 8.389.247 4.857.494 5.74.617 8.83.741 6.843.494 3.532.556 7.285.432 7.506-.617 9.272.123 4.415-.617h8.609l14.129.494 9.051.37 3.532.556 9.713-.556 16.778-.309 9.272.062 6.622-.062 8.61-.802h14.791l6.623.247 3.09-.433 3.753-.432 8.609-.37 7.948-.37c3.396-.19 5.486-.125 6.772-.085.386.012.7.022.954.022 1.104 0 6.623.556 6.623.556l9.934.494 6.843.988 4.636.432 3.974.618V5.3l6.181.37 5.078.804 6.622-.124c7.727.185 10.376.494 10.376.494l8.389.124c5.739-.247 10.375-.124 10.375-.124l6.623.37 5.298-.617 6.402-.123.221-.618 4.194-.494 9.051-.68 11.038-.06c2.429-.371 7.947-.68 9.051-.68.663 0 3.312.123 7.727.37l7.947.618 8.389.68 3.532.555 2.87.556 6.623-.062 8.83.247 5.74.309 3.532.679 4.636.432 6.622.309 1.394.136.814-.15 3.198.523.793.038 2.852-.637 5.299-.843 4.635 1.38 8.168-.23 5.299.767 3.532-1.227 5.077-.46 3.974.613 7.947.46 5.077.767 2.429-1.457 2.207 1.304 5.961.383.117.487 1.649.06 2.466.472 5.26.13 8.389-.842 7.947-.767c4.416-.307 7.065-.46 7.727-.46 1.104 0 6.623.383 9.051.843l10.817.077 5.964.556 1.1-.07 7.75.055-.023-.081 6.843-.997 2.429-.69 8.609-1.456 11.921-.077 4.636.92s7.506.153 7.506.383.22.46 6.402.384l4.856.383 10.155.23 2.649-.92 8.389-.46 5.74-.613 5.298-.767h7.726l10.818.23 6.401.383 9.935-.153 13.245.843 10.817-.076 11.7.766s5.961-.153 7.064-.153c1.104 0 8.168-.383 10.155-.997l12.804-.843 9.493-.307 10.596.46 10.376.077h8.83l8.61-.077 4.856.384 5.961.536 13.024.077 3.091.767 3.753.536 9.492-.306 7.948-.92h6.402l4.194-.997 8.389-.383h14.128l9.272.153 6.623.153 11.258-.766 15.674-.92 5.078-.614 6.622-.383 4.636-.537 3.532-.843 5.74-.383 7.83.922 6.622.076 2.87-.69 3.53-.69 8.39-.843 7.95-.767c4.41-.306 7.06-.46 7.73-.46 1.1 0 6.62.384 9.05.844l11.03.076 9.06.844 2.4.996 2.01.384 6.4.153 5.3.767 6.62-.46s4.64-.154 10.38.153l8.39-.153s2.65-.384 10.37-.614l6.63.154 5.07-.997 4.33.701 3.83.142 3 1.035 4.63-.536 6.85-1.227 9.93-.613s5.52-.69 6.62-.69c.26 0 .57-.013.96-.028 1.28-.05 3.37-.132 6.77.104l7.95.46 8.61.46 3.75.537 3.09.537 6.62-.307h14.8l8.6.997 6.63.076 9.27-.076 16.78.383 9.71.69 3.53-.69 9.05-.46 14.13-.613h8.61l4.42.766 9.27-.153 7.5.767 7.29-.537 3.53-.69 6.84-.613 8.83-.92 5.74-.767 4.86-.613 8.39-.307 5.11.307 1.51.104 10.38.662 8.17-.46 13.02-.306 17 3.91s7.06.076 8.17.076c.44 0 2.2-.076 3.75-.23Z"/></svg>