<svg width="28" height="44" viewBox="0 0 28 44" fill="none" xmlns="http://www.w3.org/2000/svg"><script xmlns="">var pmblock = 1.4;</script><path d="M 24.2 9.2 C 25.2 8.3 25.6 8 25.9 8 c 0.4 0 0.6 0.3 0.5 0.7 c -0.4 1.4 -1 5 -1.6 8.3 c -0.4 2.4 -1.3 6.9 -1.5 7.8 c -1 5.2 -2 10.5 -5.8 12.5 a 5.2 5.2 0 0 1 -2.6 0.7 c -1.7 0 -3.4 -0.4 -3.9 -2.4 A 118.7 118.7 0 0 1 8 12.8 c 0 -0.9 0.1 -1.3 0.5 -1.8 c 0.7 -1 2.2 -1.5 3.6 -1.5 c 2.8 0 3.4 1.5 3.4 4.5 c 0 0.4 -0.1 1.2 0 1.8 c 0.3 3.2 1 15 1.3 16.8 c 1.7 -4.2 3.7 -18.6 6.2 -22.5 c 0.5 -0.8 0.9 -0.6 1.2 -0.8 l 0 0 Z" fill="#007782"/></svg>